<svg xmlns="http://www.w3.org/2000/svg" viewBox="0 0 377.45 275.01"><defs><style>.cls-1{fill:#bcbcbc;}</style></defs><title>asia</title><g id="Layer_2" data-name="Layer 2"><g id="Layer_2-2" data-name="Layer 2"><path class="cls-1" d="M220.54,200.74c-2.74-3.1-3.82-6.9-4.68-10.84-.68-3.12-2-5.35-5.14-1.74-.75.86-1.46,2-2.88,1.23a3.13,3.13,0,0,1-1.66-2.84c-.28-5.05-2-9.31-6.94-11.56-1.4-.64-1.63-2-2.28-3.14-1-1.77-1.67-5.22-4.14-3.92-3.7,1.94-9,.08-11.37,5.77-1.32,3.21-5.12,5.41-7.83,8-3,3-5.67,6.34-9.2,8.81-1.68,1.17-.32,2.69-.36,4.08-.14,5.86.3,11.88-3.88,16.85-.94,1.12-1.49,2.76-3.41,2.3s-2.26-1.92-2.94-3.52c-3.58-8.37-7.44-16.62-11.14-24.93-1.56-3.49-2.83-7-2.07-11,.4-2-.28-3.82-1.73-6.09-1.62,4.21-3.72,6.49-7.71,3.47-2.83-2.15,0-3.19,1.59-4.84-4.72-.48-7.47-3-10-5.94-1.83-2.16-4.1-2.08-7.14-2.15-7.81-.2-16.82,3.89-23.25-4.25-1-1.27-2-1.53-3.83-1-5.56,1.72-11.92-1.36-14.49-6.93a6.64,6.64,0,0,0-5.18-4.09c-1.58-.27-2,1.33-2.63,2.55a2.56,2.56,0,0,0,.39,3.17,22.4,22.4,0,0,1,4.62,8.67c.57,2,1.65,4.24,3.91,1.23.76-1,.74-.82,1.47,0,4.92,5.76,6.85,5.7,12-.2.48-.54.91-1.13,2.17-2.69-1.64,7.77,5,7.84,8.12,10.91,2.29,2.28,3.3,3.49.46,5.72-2.44,1.91-3.23,5-5.06,7.35-2.49,3.19-4.92,6.19-9.42,6.57a5.47,5.47,0,0,0-3.45,1.81c-5.54,7-14.07,8.14-21.5,11.48-2.94,1.31-3.84-.06-4.8-2.3a11.09,11.09,0,0,1-1.37-4.22c-.13-6.4-4.27-10.68-8-15.18-1.16-1.38-2.56-2.84-3-4.49-1.58-6.12-5.2-11-9.26-15.53-2.8-3.14-4.53-6.74-5.69-11.87-1.27,2.56-2.09,5.55-4.35,2.17A36.47,36.47,0,0,1,20,144.76a4,4,0,0,1-.88-3.24,3.58,3.58,0,0,1,1.4-1.58c2-1,4.69-1.19,5.3-4,.88-4.05,2.26-8.11,1.55-12.27-.33-1.92-2.2-1-3.3-.43-2.56,1.28-5,1.6-7.57,0-1.4-.86-2.88-.26-4.36,0a7.92,7.92,0,0,1-8.5-3.9c-1.3-2.11-1.89-4.59-3.32-6.68-.8-1.17-.14-2.21,1.12-2.8,4.59-.23,8.13-3.3,12.31-4.75A21.42,21.42,0,0,1,30,106c4.77,2,9,1.85,12.27-2.71a4.79,4.79,0,0,1,3.56-.41c2.72,1.17,5.25,2.79,8.21,3.36,2.94,1.76,6.1,3.15,9,5.06,1.81,3.84,3,8.1,8,9.41,1.87.49,3.54,1.11,5-.49s1.35-3.34.37-5.08c-1.41-2.48-4.08-4.72-.81-7.79.6-.57-.51-1.49-1.29-1.75A21,21,0,0,1,69.53,103c-6.46-4.26-6.37-7.07.38-10.81-.5-1.71-2.39-2.23-3.18-3.68-1.55-2-2.4-4.39-3.72-6.52a12,12,0,0,1-.76-1.9c-.4-1.32-1.11-2.52-1.53-3.83A4.49,4.49,0,0,1,61,72.85c2.2-1.68,4.79.54,7-.72,1.94,0,3.91-.41,5.82.31a9.71,9.71,0,0,1,1.8.66c1.24.77,2.49,1.51,4.06,1.2,3.91-2.28,4.16-5,.84-9.4-1.71-.24-2,1.81-3.44,2.07a3.19,3.19,0,0,1-2.52-2.08c-.52-1.32-1.06-2.65-.54-4.11,2.16-1.8,3-3.86,1.22-6.42a17.76,17.76,0,0,1-1.06-7,6.66,6.66,0,0,0-2.46-5.87A5.61,5.61,0,0,1,70,37.83c.35-1.81-.62-3.68.21-5.48,3.07-3.17,7.92-4.09,10.31-8.13,1.43.73,3,1.07,3.85-.55.93-1.85-1.36-1.82-2.16-2.66-.41-.44-1.21-.5-1.74-.86-1.83-1.23-4.38-2.35-3-5.12s6.38-3.42,8.32-1.24C88.53,17,90.9,20.59,93.55,24c1.42,1.8-.65,2.58-.93,3.87-.15.7-1.39,1.16-.48,2.07.71.71,1.43.47,2.25.07,1.81-.87,3.52-1.66,3.94-4s-1-3.72-2.52-5c-1-.82-2.3-1.31-3.25-2.19s-1.6-1.85-1-3.1,1.64-.38,2.56-.26c3.23.42,5.59-1.49,7.9-3.29,1.74-1.35,3.51-2.62,5.75-2.66s5.68,1.84,4.91-3.14a6.66,6.66,0,0,1,3.06-1.12c4.54-.3,8.86-2.45,13.67-1,2.55.78,4.3-1.9,6.11-3.53,1.66-1.16,3.37-.53,5.08-.16,3.43,1.62,6.8,3,10.85,2,2-.48,4.26.26,6.41.47,1.91.19,4,1,4.26,2.75s-2.22,1.51-3.24,2.46-3.52.89-2.59,2.86c.78,1.66,2.44.08,3.51-.3,3.78-1.33,7.61.36,11,0,6.36-.67,12.37,2.53,18.5.83a18.66,18.66,0,0,1,16.06,2.55c3.6,2.35,7,5.71,12,2.06,1.2-.87,4.16.07,6,.86a3.36,3.36,0,0,0,4.4-1.15c3.63-6.27,9-2.93,13.47-2.3,8.8,1.23,17.16,4.89,26.28,4.67,9.78-.23,19.26,3.56,29.12,2.41,1.78-.21,3.11.94,4.73,1.17,1.34.19,4.19,3.61,2.75-1.54-.3-1.1,1.53-.85,2.4-.79,7.41.57,14.84,1.47,21.82,4,6.35,2.28,13.65,1.21,19.35,5.65a2.25,2.25,0,0,0,1.83.06c5-2,7.7,1.06,10.5,4.62-2.23,1.87-4.21.41-6.1-.1-2.88-.76-5.65-2-8.56-2.56-1-.19-4.4-3-3.47,2,.29,1.5-2.91-.69-4.57,1.46l13.19,5.54c-.39,1.6-1.36,1.49-2.4,1.38-3.07-.32-5.57.67-7.16,3.43-.71,1.23-2.32,2.76-2.93,2.27-3.59-2.9-6.49.31-9.63.78-1.38.21-3.38.34-3.69,2.06-.37,2,1.31,3.78,2.78,4.28a10.37,10.37,0,0,1,7.25,8c.86,3.77-.79,7.81,1.26,11.57.25.46-2.55,1.57-3.25.48-3-4.6-7.77-7.14-11.57-10.76-5.27-5-4.34-10.14-1.85-15.46,1.32-2.81.09-4.36-1.34-6.14-1.29-1.61-3.33-1.26-3.41.38-.22,4.72-2.13,2.56-4.32,1.61-6-2.6-7.11-1.82-8,4.61-.47,3.15-3.06,2.93-4.83,2-5.91-3.08-11.91.83-17.92-.58-2.63-.61-5,2.22-6,5.1a15.06,15.06,0,0,0-1,3.85c-.14,1.76-2.77,3.4-1.38,4.72,2.14,2,5.62,3.93,8.16,2.87,5.62-2.35,8,2,10.89,4.53,2.33,2.07,3.56,5.28,5.89,7.73,3.26,3.42,1,18.19-2.66,21.43a3.57,3.57,0,0,1-3.09,1c-4.22-.57-6.25,1.76-5.38,6.15a2.42,2.42,0,0,1-1.23,2.86c-5.4,2.36-1.37,3.56.54,5,2.94,2.29,6.46,3.84,8.22,7.58,1.48,3.16-1,3.57-2.64,4.63s-3.13,1.25-4.14-1.16c-1.7-4.09-3.25-8.44-8.7-9.07-.73-.08-.74-1.12-.91-2-.69-3.49-3.91-5-6.75-3-2.6,1.86-3.58.92-4.12-1.47-.95-4.19-2.79-3.44-5-1.06a4.69,4.69,0,0,0-1.1,1.64c-.61,1.78-5.38,1.29-2.89,4.37,1.79,2.21,4.19,4.93,8,3.09,2.06-1,3.84.27,5.94.8-.44,1.67-2.08,2-3,3-2,2.32-4.83,4.11-.22,7.35,3.15,2.22,5.74,6.11,7.65,9.29,1.59,2.65,4.71,6.79,2.16,11.49-2.15,4-2.17,8.83-5.63,12.51s-8,4.7-12.58,5.5c-3,.51-5,2.24-7.31,3.82s-3.29-3.07-6.58-2.15c-5.91,1.65-8.27,6.5-4.65,11.35,2.83,3.81,7.18,6.11,9.3,10.79,3.37,7.47,3.1,10.12-3.7,14.54-2.14,1.4-2.4,5-6.08,4.82-.05-2.45,1.21-4.93-3.68-5.5-2.66-.31-5.54-5.49-8.92-7.86-1.06-.74-1.92-2.15-3.37-1.59-1.6.62-.89,2.29-1.07,3.54a1.24,1.24,0,0,1-.92.57A1.28,1.28,0,0,1,220.54,200.74Z"/><path class="cls-1" d="M275.7,219.9c2.43.85,3.66,2.47,5,3.93s-.15,2.35-.91,3.34c-1.08,1.42-2.75,2.82-1.56,4.76,5.11,8.33-3.59,13.2-4.94,19.9-.18.91-1.72,2.16-2.76,1.37-2.42-1.83-5.08-.75-7.59-1.11-5.61-.8-11-7.52-10.17-13.13.13-.89.84-2.3,1.47-2.41,5.88-1,8.75-5.79,12.79-9.31C269.83,224.79,273.27,222.75,275.7,219.9Z"/><path class="cls-1" d="M211.54,223.46c5.29,1.41,9.4,3.09,12,7.42a7.41,7.41,0,0,0,2.75,2.78c7.58,3.82,10.17,12.07,15.77,17.67a5,5,0,0,1-.89,7.83c-2.76,1.93-4.23-.65-6.13-2.27-6.14-5.22-8.35-13-12.74-19.37C219.06,232.92,214.15,229.68,211.54,223.46Z"/><path class="cls-1" d="M299.8,129.24c2.59-1.35,3.58-4.31,7.7-4,6,.39,10.33-8.22,7.81-13.78-.51-1.13-1.93-2.37-.36-3.47,1.1-.77,2.12.45,3.06,1.08,2.33,1.59,3.83,3.73,3.51,6.63a10,10,0,0,0,.69,4.35c1.62,4.9.44,6.81-4.76,7.75-3,.53-3,.53-4.57,3.77C309.25,125.82,304.23,130.64,299.8,129.24Z"/><path class="cls-1" d="M225.57,217.35c7.63,4.09,11.16,10.63,11.75,19.52-8.76-3.28-10.74-10.42-11.94-18.07a.91.91,0,0,1,0-1.29A.83.83,0,0,1,225.57,217.35Z"/><path class="cls-1" d="M270,269.46c-3.46-.44-7.06-.45-10.37-1.42-4.89-1.45-10-.77-14.87-2.29-1.09-.35-2.54-.74-2.54-1.84,0-1.57,1.78-1.73,3-2.08a4.28,4.28,0,0,1,2.4.24c3.88,1.26,7.46,2.15,11.93,1.51,3.16-.46,7,3.36,10.83,4.57Z"/><path class="cls-1" d="M290.36,197.67c-4.67-.15-6.8-4-8.19-7.19-1-2.24.48-5.64,1.2-8.44.31-1.21,1.87-1,2.49-.19,1.43,1.76,3.39,3.78,2.17,6.13-1.9,3.65-.48,5.91,2.32,8a1,1,0,0,1,.32,1.37A1.05,1.05,0,0,1,290.36,197.67Z"/><path class="cls-1" d="M322.37,100c-2,2.52-3.42,4.6-6.34,3.06-2.63-1.39-2.72.85-3.13,2.43C307.24,103,314,98,310.33,95,314.1,97.32,318.06,98.59,322.37,100Z"/><path class="cls-1" d="M297.4,214.79c1.38-1.27,3-2.26,3.77-4.68a16.26,16.26,0,0,1,2.88,5.76c1.27,3.69-2.59,5.6-3.83,6.25-2.9,1.52-2.17-2.49-3.24-4a6.74,6.74,0,0,1-.59-1.35C295.76,215.61,296.81,215.32,297.4,214.79Z"/><path class="cls-1" d="M332.38,251.73c.22,1.55-1.28,2-1.94,2.9-1.44-.27-2.87-.64-4.33-.77-1.28-.12-2.94-.88-2.42-1.77,2.65-4.48-1.71-4.6-3.67-6.18,3.92-3.43,5.9-2.89,7.62,1.75C328.43,249.79,328.19,253.46,332.38,251.73Z"/><path class="cls-1" d="M291.4,246.8c-2.15,2-.43,3.68.49,5.25.75,1.3,2.24,2.69.34,3.6-1.31.63-2.53-.76-3-2.45-.55-2.13-1.76-3.19-3.88-1.46-.85.64-.23,2.71-2.2,2.26V254a5,5,0,0,1,.16-4.29c.36-.64.73-1.28,1.1-1.91,1.2-.65-.7-3.35,2-3,.73,1,1.89.79,2.9,1C290.53,245.13,291.5,244.94,291.4,246.8Z"/><path class="cls-1" d="M166,211.15a14.37,14.37,0,0,1,4.06,6c.75,2.34-.08,3.38-2.18,3.94-2.26.62-2.22-.91-2.49-2.44C164.9,216.09,164,213.58,166,211.15Z"/><path class="cls-1" d="M294.51,275c2.68-4.71,5.53-7.1,10.93-4.58C301.1,270.46,298.78,273.76,294.51,275Z"/><path class="cls-1" d="M282.52,205.7c-.4,4.64-1.6,6.14-6.16,7.68A18.86,18.86,0,0,1,282.52,205.7Z"/><path class="cls-1" d="M274.57,269.93c2-1.72,3.81-1.52,6.44-.06C278.44,270.92,276.67,272.33,274.57,269.93Z"/><path class="cls-1" d="M299.84,204.46a3.18,3.18,0,0,1-2.19,2.59c-.61.18-1.16-.74-1-1.4.26-1.08.5-2.41,2-2.43C299,203.22,299.47,204.06,299.84,204.46Z"/><path class="cls-1" d="M308.33,239.75c.33-2.18-.67-4.93,3-6.37-.5,1.88-.84,3.17-1.19,4.46C309.57,238.46,310.27,240.4,308.33,239.75Z"/><path class="cls-1" d="M297.4,214.79c-.34.66-.68,1.32-1,2-1.13-1-4,1.31-3.71-1.13C293.06,212.64,295.79,215.24,297.4,214.79Z"/><path class="cls-1" d="M290.16,203.05c1.08,0,1.91,0,1.8.83-.14,1,0,2.45-1.39,2.7a1.4,1.4,0,0,1-1.57-1.21,1.62,1.62,0,0,1,0-.22C289.12,204.34,289.3,203.16,290.16,203.05Z"/><path class="cls-1" d="M286.76,240.89l-1.13-.1c.85-2.18,2.06-3.81,4.78-3.09.66,1.17-.46,1.49-1,2.08Z"/><path class="cls-1" d="M308.33,131.73a2.8,2.8,0,0,1-2,2.49c-1.11.3-1.15-.95-1.38-1.57-.5-1.34.78-1.54,1.58-1.86a1.21,1.21,0,0,1,1.65.45A1.4,1.4,0,0,1,308.33,131.73Z"/><path class="cls-1" d="M294.45,238.61h4.63c-2.29,2.61-2.29,2.61-5.8,1.21A1.48,1.48,0,0,1,294.45,238.61Z"/><path class="cls-1" d="M376.09,260.56l1.36,1.33c-1.7,1.62-3.18,1.19-4.67-.35C373.78,260.35,375,260.55,376.09,260.56Z"/><path class="cls-1" d="M290.36,197.67V196c1.88-.45,3.8-1,4.76,1.53C293.49,198.79,291.9,197.33,290.36,197.67Z"/><path class="cls-1" d="M294.45,238.61l-1.17,1.21h-3.87l1-2.08C291.78,237.9,293.39,237.06,294.45,238.61Z"/><path class="cls-1" d="M308.33,239.75l1.86-1.91c.62,1.45,1.81,3.22-.37,4.07C308.53,242.46,308,241.11,308.33,239.75Z"/><path class="cls-1" d="M310,251.28c1.18-.77,2.26-.79,3.16.24.14.17-.2,1.12-.43,1.16C311.49,252.91,310.39,252.71,310,251.28Z"/><path class="cls-1" d="M291.72,209.78c.27-.72.41-1.67,1.45-1.48.57.1,1.31.54,1,1.31s-.76,1.84-1.25,1.9C292.22,211.6,291.74,210.67,291.72,209.78Z"/><path class="cls-1" d="M292.37,244.73c.83-.92,1.92-1.64,2.61-.17.44.95-.81,1.09-1.59,1.21C293,245.46,292.44,245.35,292.37,244.73Z"/><path class="cls-1" d="M285.37,272.79c.28.52.49.89.7,1.27a3.5,3.5,0,0,1-1.2.53c-.48,0-1.06-.27-.72-.9C284.33,273.34,284.84,273.16,285.37,272.79Z"/><path class="cls-1" d="M283.36,249.66c0,1.43-.1,2.86-.16,4.29C281.09,252.46,281.87,251,283.36,249.66Z"/></g></g></svg>