<svg xmlns="http://www.w3.org/2000/svg" viewBox="0 0 231.81 130.75"><defs><style>.cls-1{fill:#bcbcbc;}</style></defs><title>australia</title><g id="Layer_2" data-name="Layer 2"><g id="Layer_2-2" data-name="Layer 2"><path class="cls-1" d="M13.7,89.74c-3.36,1.65-6.62,4-10.61,2.85C1,92-1.77,91.44,1.57,88.11A8.26,8.26,0,0,0,3.8,79.47c-1.72-5-.37-10.22,0-15.3a42.72,42.72,0,0,0,.08-4.8c-.13-3.75,1-7,5.05-8.74,5.34-2.21,10.3-5.32,16.35-5.66a6.23,6.23,0,0,0,4.87-3.23c3-6,9.65-8.39,13.41-13.74,1.82-2.59,5-4.33,8.43-.95,1.82,1.78,3.88,3.06,5-1.45,1.29-5.12,12.65-10,18.79-5.68,1.93,1.36.33,2.45-.33,3.24-2.84,3.4-2.11,6,1.45,8.17,1.26.78,2.28,2.09,3.63,2.59,2.2.8,3.64,4.62,6.22,2.78,3-2.15,5.71-5,5.8-9.32a19.25,19.25,0,0,1,4-11.76c1.27,8.55,10,13.79,6.44,23-.44,1.16.34,1.88,1.09,2.55,6.27,5.57,7.68,14.16,12.76,20.62,2.18,2.78.48,8.14-1.11,11.83-2.47,5.75-5.78,10.86-11.38,14.65-4.37,3-7.48,7.79-11.1,11.84-1.47,1.65-2.38,3.94-5.47,2.7-1-.38-2.57.43-3.69,1-2.45,1.34-4.65,4.22-7.37.31-.58-.83-1.52.13-2.18.48-2.61,1.36-4.62,0-6.91-1.09-3.28-1.48-1.89-3.43-1.21-5.59.2-.62-.52-1.52-.83-2.29-.16-1.82-1.27-3.29-1.85-5,.52-1,2.71-1.63,1.36-3.12-1-1.17-2.09.25-2.88,1-3,2.73-4.93,3.3-7.15-1.22-1.9-3.87-5.86-5.66-10.49-4.88a.93.93,0,0,1,.4-1.15,8.16,8.16,0,0,1,2.61-.19,3.8,3.8,0,0,0-3.52.88c-1.75.48-3.77-.75-5.33.86L24.51,88.29c-2-.22-4-.91-5.84.46l.14-.06C17.24,89.65,15.24,88.29,13.7,89.74Z"/><path class="cls-1" d="M124.71,130.71c-1.34,0-3,.2-3.46-1.29s1.36-2,2.34-2.78c4.52-3.61,10.48-4.2,15.25-7.23,2.79-1.78,5.34-3.93,8.11-5.74.81-.53,1.92-1.5,3-.08a2.07,2.07,0,0,1,.08,2.91,2,2,0,0,1-.66.47c-6.92,4.38-13.89,8.66-20.82,13A6.5,6.5,0,0,1,124.71,130.71Z"/><path class="cls-1" d="M164.11,99.91a12.07,12.07,0,0,0,6.43,5c-6.41,2.76-10,7.76-15.55,10C154.66,107.91,160.86,105.05,164.11,99.91Z"/><path class="cls-1" d="M73.72,113.29c1.52,2.67,5-1.24,6.54,1.5.75,1.31-6.08,6.73-8.08,6.43-.84-.12-2-.21-1.87-1.71C70.45,117.53,72.46,113.2,73.72,113.29Z"/><path class="cls-1" d="M161.47,52.06a12.72,12.72,0,0,1-7-5.54c-.4-.6-1.28-1.32-.3-2.13s1.36.16,1.84.78Q158.74,48.63,161.47,52.06Z"/><path class="cls-1" d="M170.62,30.62c-.5,1.83-1,3.66-1.59,5.88a5.37,5.37,0,0,1-2.48-4.78,2.69,2.69,0,0,1,.88-1.07C168.49,30.1,169.55,29.54,170.62,30.62Z"/><path class="cls-1" d="M170.62,30.62l-2.94,1a3.18,3.18,0,0,1-1.19-2.87C168.72,27.5,170.78,26.66,170.62,30.62Z"/><path class="cls-1" d="M231.81,26c-1.94-.37-3.54.08-4-1.81a1.12,1.12,0,0,1,.89-1.31l.18,0C231,22.64,230.84,24.38,231.81,26Z"/><path class="cls-1" d="M199.46,37.58a2.21,2.21,0,0,1-2.25,1.59c-1,0-1.53-1.18-1.54-2.11a1.14,1.14,0,0,1,1.09-1.2,1.05,1.05,0,0,1,.62.14C198.24,36.29,199.35,36.37,199.46,37.58Z"/><path class="cls-1" d="M146.82,11.87l2.24-3.46C150.61,11.29,150.61,11.29,146.82,11.87Z"/><path class="cls-1" d="M140.59,4.85c-2.06-.24-2.77-1.38-3.44-3.2C139.24,2,140,3,140.59,4.85Z"/><path class="cls-1" d="M163,93.92c1.7,1,2,1.94,1.06,3.08-.2.26-1,.4-1.16.26A2.69,2.69,0,0,1,163,93.92Z"/><path class="cls-1" d="M201.67,33.4c.57.14,1.45-.09,1.38.87a1.25,1.25,0,0,1-1.37,1.12h0c-.7,0-1.35-.34-1.39-1.09C200.24,33.37,201.06,33.5,201.67,33.4Z"/><path class="cls-1" d="M135.31,2.57c-1.91.08-2.43-.83-2.45-2.57A3,3,0,0,1,135.31,2.57Z"/><path class="cls-1" d="M166.49,28.72a4.06,4.06,0,0,1,1.19,2.87l-1.13.13C165.51,30.74,165.24,29.74,166.49,28.72Z"/></g></g></svg>